#!OML:ASF H:\ManfredETheater\Project 1\Capture day 1\Session 1\subject.ASF
:FULLY-SPECIFIED
:DEGREES
48
root 0.675205 16.8586 -31.9265 18.4618 -2.37207 -6.24718
lowerback 17.675 -0.103516 7.05775
upperback 0.556618 1.79526 5.32968
thorax -9.32303 0.670245 1.3518
lowerneck -21.1146 0.254494 -1.07155
upperneck 5.68248 1.41446 -7.00203
head 5.14376 0.123839 -1.91642
rclavicle 1.47101e-014 3.18055e-014
rhumerus -41.5432 2.62786 -83.686
rradius 95.3564
rwrist -5.85773
rhand -29.2382 3.44911
rfingers 7.12502
rthumb -2.58174 -26.515
lclavicle 1.47101e-014 3.18055e-014
lhumerus -58.6205 -16.9604 99.1969
lradius 91.7991
lwrist 8.68965
lhand -25.8694 -19.8534
lfingers 7.12502
lthumb 0.671852 10.1253
rfemur -28.9988 -5.23743 28.1419
rtibia 51.3677
rfoot -25.8208 -12.9247
rtoes -39.25
lfemur -47.2224 4.65792 -16.2919
ltibia 92.6711
lfoot -6.83629 -8.39177
ltoes -6.07621
49
root 0.615858 16.8372 -31.5255 18.6596 -2.32369 -6.61541
lowerback 17.4341 0.18175 7.21298
upperback 0.428741 2.18199 5.27563
thorax -9.31139 0.844777 1.11068
lowerneck -21.1829 0.0123913 -1.15779
upperneck 6.14548 1.10675 -6.64815
head 5.28598 -0.0153214 -1.82472
rclavicle 1.59028e-015 6.99722e-014
rhumerus -40.2005 3.43557 -84.6816
rradius 97.4444
rwrist -6.13263
rhand -29.3556 3.69592
rfingers 7.12502
rthumb -2.69515 -26.2668
lclavicle 1.59028e-015 6.99722e-014
lhumerus -61.0938 -16.6682 98.8101
lradius 92.6177
lwrist 8.76903
lhand -25.7375 -20.1176
lfingers 7.12502
lthumb 0.799263 9.86068
rfemur -26.7303 -4.90886 28.5241
rtibia 49.7624
rfoot -26.2974 -13.3627
rtoes -39.6276
lfemur -50.9375 5.41451 -16.2867
ltibia 92.8977
lfoot -8.23818 -8.03584
ltoes -6.67446
50
root 0.559527 16.83 -31.1144 18.882 -2.30054 -6.86306
lowerback 17.1215 0.480459 7.28717
upperback 0.297673 2.55592 5.15321
thorax -9.25924 1.01639 0.846537
lowerneck -21.236 -0.258456 -1.25962
upperneck 6.581 0.752436 -6.23491
head 5.41698 -0.170629 -1.71657
rclavicle 1.66979e-014 6.99722e-014
rhumerus -39.0836 4.39282 -85.6574
rradius 99.6228
rwrist -6.39533
rhand -29.4744 4.07066
rfingers 7.12502
rthumb -2.80988 -25.8906
lclavicle 1.66979e-014 6.99722e-014
lhumerus -63.6619 -16.5848 98.5201
lradius 93.9728
lwrist 9.54565
lhand -25.4325 -20.2625
lfingers 7.12502
lthumb 1.09385 9.7144
rfemur -24.4134 -4.55646 28.743
rtibia 47.9892
rfoot -26.4421 -13.6008
rtoes -40.074
lfemur -54.4481 5.92405 -16.467
ltibia 92.4363
lfoot -9.40411 -7.84015
ltoes -7.2436
51
root 0.506322 16.8366 -30.6927 19.1068 -2.26324 -7.03415
lowerback 16.7503 0.784634 7.33119
upperback 0.168699 2.92037 4.98634
thorax -9.16704 1.18533 0.55757
lowerneck -21.2582 -0.562651 -1.38055
upperneck 6.9787 0.347925 -5.78662
head 5.53195 -0.345307 -1.59931
rclavicle -2.06736e-014 -1.43125e-014
rhumerus -38.1806 5.51194 -86.5548
rradius 101.835
rwrist -6.59389
rhand -29.5201 4.60553
rfingers 7.12502
rthumb -2.85399 -25.3551
lclavicle -2.06736e-014 -1.43125e-014
lhumerus -66.2426 -16.651 98.3271
lradius 95.6708
lwrist 10.8618
lhand -24.9802 -20.2841
lfingers 7.12502
lthumb 1.53069 9.69017
rfemur -22.0243 -4.18107 28.8523
rtibia 46.046
rfoot -26.2204 -13.6312
rtoes -40.6474
lfemur -57.671 6.16946 -16.7213
ltibia 91.3022
lfoot -10.3494 -7.84571
ltoes -7.69017
52
root 0.456402 16.855 -30.2604 19.3159 -2.17047 -7.15706
lowerback 16.3282 1.08146 7.38054
upperback 0.0490146 3.26796 4.79711
thorax -9.03108 1.34748 0.251019
lowerneck -21.2448 -0.899822 -1.52654
upperneck 7.3379 -0.102568 -5.32023
head 5.63089 -0.538977 -1.47689
rclavicle 1.31198e-014 1.11319e-014
rhumerus -37.4988 6.77573 -87.3368
rradius 104.039
rwrist -6.66778
rhand -29.513 5.26708
rfingers 7.12502
rthumb -2.84717 -24.6937
lclavicle 1.31198e-014 1.11319e-014
lhumerus -68.7567 -16.7906 98.2134
lradius 97.5223
lwrist 12.4787
lhand -24.4063 -20.1934
lfingers 7.12502
lthumb 2.085 9.77614
rfemur -19.5608 -3.78986 28.8955
rtibia 43.9558
rfoot -25.6032 -13.4452
rtoes -41.3436
lfemur -60.5468 6.14896 -16.962
ltibia 89.5342
lfoot -11.0999 -8.07829
ltoes -7.99895
53
root 0.410261 16.8833 -29.8179 19.4849 -1.99649 -7.23961
lowerback 15.8799 1.35819 7.44992
upperback -0.0559993 3.58812 4.59889
thorax -8.85977 1.49749 -0.0640356
lowerneck -21.2059 -1.26448 -1.69961
upperneck 7.67589 -0.58828 -4.84662
head 5.72179 -0.748179 -1.35154
rclavicle 4.09496e-014 4.37326e-014
rhumerus -37.0402 8.1569 -87.9862
rradius 106.183
rwrist -6.55733
rhand -29.3944 6.10063
rfingers 7.12502
rthumb -2.73258 -23.8616
lclavicle 4.09496e-014 4.37326e-014
lhumerus -71.1421 -16.9223 98.1539
lradius 99.3601
lwrist 14.109
lhand -23.7542 -19.9995
lfingers 7.12502
lthumb 2.71478 9.96299
rfemur -17.0246 -3.39579 28.888
rtibia 41.7632
rfoot -24.5842 -13.0033
rtoes -42.0906
lfemur -63.0147 5.87802 -17.1475
ltibia 87.1754
lfoot -11.6729 -8.53008
ltoes -8.27036
54
root 0.367742 16.9199 -29.3655 19.5837 -1.73147 -7.27317
lowerback 15.4429 1.60195 7.51813
upperback -0.142626 3.8648 4.40464
thorax -8.67368 1.6284 -0.359341
lowerneck -21.1369 -1.64207 -1.89881
upperneck 8.00281 -1.08796 -4.3783
head 5.8081 -0.96399 -1.22517
rclavicle 3.97569e-014 3.65764e-014
rhumerus -36.8088 9.61738 -88.5118
rradius 108.212
rwrist -6.21403
rhand -29.131 7.09791
rfingers 7.12502
rthumb -2.47822 -22.8674
lclavicle 3.97569e-014 3.65764e-014
lhumerus -73.3588 -16.9604 98.1293
lradius 101.058
lwrist 15.4975
lhand -23.0697 -19.7349
lfingers 7.12502
lthumb 3.37579 10.2181
rfemur -14.4286 -3.00008 28.831
rtibia 39.5325
rfoot -23.1497 -12.3288
rtoes -42.8948
lfemur -65.0122 5.39264 -17.2684
ltibia 84.2801
lfoot -12.0512 -9.15713
ltoes -8.5946
55
root 0.328679 16.9634 -28.9041 19.5916 -1.39325 -7.26083
lowerback 15.0351 1.80956 7.56937
upperback -0.195046 4.09211 4.22136
thorax -8.46864 1.73852 -0.618908
lowerneck -21.0529 -2.01981 -2.12065
upperneck 8.32532 -1.58458 -3.91549
head 5.89471 -1.17856 -1.0968
rclavicle 2.26615e-014 3.97569e-015
rhumerus -36.7966 11.1029 -88.9552
rradius 110.088
rwrist -5.6598
rhand -28.7481 8.19803
rfingers 7.12502
rthumb -2.10838 -21.7713
lclavicle 2.26615e-014 3.97569e-015
lhumerus -75.3506 -16.8504 98.1191
lradius 102.529
lwrist 16.4659
lhand -22.3999 -19.4643
lfingers 7.12502
lthumb 4.02261 10.4775
rfemur -11.805 -2.57561 28.7288
rtibia 37.3454
rfoot -21.3192 -11.3725
rtoes -43.6124
lfemur -66.5041 4.76068 -17.3354
ltibia 80.9155
lfoot -12.1882 -9.93149
ltoes -9.04882
